<svg width="2500" height="2500" viewBox="0 0 2500 2500" fill="none" xmlns="http://www.w3.org/2000/svg">
<rect width="2500" height="2500" fill="#FDF7EB"/>
<g clip-path="url(#clip0_1501_2941)">
<path d="M657.164 973.296L629.141 1017.15L482.687 923.59L508.662 882.953L550.469 909.676L553.98 907.4L657.164 973.296ZM572.38 919.136L566.789 927.913L544 913.349L549.234 905.157C542.114 898.688 536.685 891.438 532.881 883.408C529.11 875.378 527.582 866.796 528.33 857.661C529.078 848.526 532.556 839.098 538.798 829.345C545.885 818.227 553.882 810.782 562.757 806.979C571.632 803.175 580.93 802.2 590.618 803.988C600.306 805.776 609.928 809.742 619.486 815.821L643.738 831.328L615.715 875.183L600.533 865.463C592.341 860.229 585.286 858.278 579.402 859.546C573.485 860.879 567.666 865.983 561.945 874.956C555.735 884.708 553.557 893.031 555.508 899.858C557.458 906.717 563.082 913.154 572.445 919.103L572.38 919.136Z" fill="#4761E3"/>
<path d="M791.197 814.295C777.055 827.266 762.328 836.369 747.049 841.603C731.77 846.837 716.588 847.259 701.569 842.838C686.549 838.417 672.148 828.697 658.396 813.71C645.88 800.088 638.045 785.524 634.859 770.082C631.674 754.64 632.909 739.329 638.566 724.082C644.222 708.835 654.138 694.758 668.279 681.787C682.258 668.978 696.692 660.136 711.549 655.292C726.406 650.448 741.002 650.026 755.306 653.992C769.611 657.99 782.874 666.605 795.065 679.902C797.081 682.112 798.869 684.258 800.429 686.273C801.99 688.321 803.615 690.597 805.273 693.1L690.223 798.626L671.693 778.437L759.663 697.782L762.458 718.263C760.898 716.572 759.403 714.947 758.005 713.419C756.607 711.891 755.209 710.363 753.811 708.802C744.903 699.082 735.833 694.531 726.666 695.116C717.466 695.701 706.9 701.455 694.969 712.411C682.03 724.277 675.301 735.102 674.781 744.823C674.293 754.543 679.04 764.848 689.02 775.772L697.928 785.492C707.94 796.382 717.791 802.006 727.511 802.364C737.231 802.722 748.642 796.87 761.776 784.809C773.024 774.504 779.623 765.791 781.574 758.672C783.524 751.552 781.997 745.245 776.99 739.816L774.649 737.248L813.01 702.073L815.611 704.869C824.064 714.069 828.745 724.829 829.688 737.15C830.63 749.471 827.867 762.28 821.398 775.576C814.928 788.873 804.851 801.779 791.197 814.295Z" fill="#4761E3"/>
<path d="M1021.14 665.596L977.837 687.605L959.112 650.804L956.316 651.455L928.813 597.327C923.677 587.216 917.695 581.722 910.868 580.779C904.041 579.837 894.451 582.502 882.065 588.809C870.296 594.791 862.754 600.838 859.373 606.982C855.992 613.094 856.577 620.603 861.064 629.446L861.681 630.681L814.998 654.413L814.51 653.503C808.009 640.726 805.668 627.723 807.488 614.459C809.309 601.195 815.063 588.679 824.783 576.878C834.471 565.077 847.8 554.869 864.705 546.287C882.032 537.477 897.702 532.991 911.778 532.861C925.855 532.731 938.176 536.242 948.709 543.491C959.242 550.741 967.987 561.111 974.911 574.733L1021.14 665.661V665.596ZM913.859 724.015C897.149 732.5 882.195 735.459 868.931 732.825C855.667 730.192 845.817 722.552 839.283 709.744C835.284 701.909 833.756 694.269 834.634 686.825C835.511 679.38 838.795 672.033 844.484 664.881C850.173 657.696 858.268 650.642 868.801 643.782L934.762 601.293L948.286 627.885L894.678 663.288C889.314 666.539 885.803 669.692 884.113 672.748C882.422 675.804 882.52 679.185 884.405 682.891C886.486 687.02 889.672 689.165 893.898 689.36C898.124 689.523 903.651 687.898 910.445 684.452C921.596 678.795 930.244 673.106 936.388 667.352C942.565 661.63 946.368 655.486 947.831 648.886C949.262 642.319 948.026 635.102 944.027 627.268L948.189 624.732L961.55 651.032L957.226 653.243C959.795 666.994 957.519 679.998 950.432 692.319C943.345 704.607 931.121 715.173 913.794 723.983L913.859 724.015Z" fill="#4761E3"/>
<path d="M1087.45 650.902L1037.48 665.434L972.596 442.257L1022.56 427.726L1087.45 650.902Z" fill="#4761E3"/>
<path d="M1205.07 635.233C1186.35 635.721 1171.56 631.917 1160.7 623.855C1149.84 615.792 1144.25 604.609 1143.89 590.273C1143.66 581.495 1145.55 573.92 1149.58 567.581C1153.58 561.242 1159.69 556.073 1167.92 552.009C1176.14 547.945 1186.48 545.117 1198.93 543.427L1276.76 533.479L1277.5 563.29L1213.85 572.165C1207.64 572.815 1203.09 574.115 1200.26 576.164C1197.43 578.212 1196.07 581.3 1196.17 585.461C1196.26 590.11 1198.21 593.393 1201.95 595.377C1205.69 597.36 1211.41 598.27 1219.02 598.075C1231.5 597.75 1241.74 596.352 1249.81 593.816C1257.84 591.313 1263.92 587.379 1268.08 582.08C1272.21 576.781 1274.19 569.727 1273.96 560.949L1278.81 560.494L1279.55 589.98L1274.71 590.078C1271.1 603.601 1263.46 614.395 1251.76 622.424C1240.05 630.487 1224.48 634.745 1205.04 635.233H1205.07ZM1327.05 628.666L1278.48 629.901L1277.44 588.647L1274.64 587.997L1273.12 527.302C1272.82 515.989 1269.8 508.414 1264.05 504.643C1258.26 500.84 1248.47 499.149 1234.59 499.474C1221.43 499.799 1212 502.01 1206.31 506.106C1200.62 510.202 1197.92 517.192 1198.18 527.107V528.505L1145.84 529.838V528.798C1145.45 514.461 1148.96 501.717 1156.31 490.534C1163.66 479.351 1174.26 470.541 1188.1 464.072C1201.92 457.602 1218.34 454.091 1237.29 453.636C1256.7 453.148 1272.79 455.847 1285.53 461.763C1298.28 467.68 1307.9 476.165 1314.31 487.251C1320.71 498.304 1324.12 511.47 1324.48 526.717L1327.08 628.666H1327.05Z" fill="#4761E3"/>
<path d="M1389.37 642.903L1338.69 631.135L1378.03 461.826L1425 472.75L1413.79 521.058L1417.1 523.627L1389.37 642.903ZM1412.16 544.92L1402.02 542.579L1408.13 516.214L1417.59 518.425C1421.3 509.55 1426.34 502.008 1432.64 495.734C1438.95 489.492 1446.56 485.201 1455.4 482.86C1464.24 480.519 1474.32 480.682 1485.57 483.283C1498.41 486.273 1508.1 491.312 1514.63 498.399C1521.17 505.486 1525.2 513.939 1526.76 523.659C1528.32 533.379 1527.8 543.782 1525.23 554.803L1518.69 582.859L1468.01 571.09L1472.11 553.503C1474.29 544.042 1473.8 536.728 1470.61 531.591C1467.4 526.455 1460.63 522.684 1450.3 520.278C1439.01 517.645 1430.5 518.393 1424.65 522.521C1418.79 526.65 1414.67 534.095 1412.13 544.888L1412.16 544.92Z" fill="#4761E3"/>
<path d="M1614.69 726.454L1575.87 707.891C1557.5 699.113 1545.25 687.735 1539.1 673.788C1532.96 659.842 1534.62 642.937 1544.11 623.106L1606.5 492.582L1653.44 515.013L1593.59 640.206C1589.79 648.139 1589.01 654.218 1591.18 658.477C1593.39 662.735 1598.56 666.799 1606.69 670.668L1634.84 684.159L1614.66 726.421L1614.69 726.454ZM1671.09 608.445L1548.69 549.961L1567.26 511.144L1689.62 569.661L1671.09 608.445Z" fill="#4761E3"/>
<path d="M1666.48 763.936L1623.34 734.808L1720.64 590.792L1763.75 619.92L1666.48 763.936ZM1773.66 605.258L1730.55 576.13L1753.47 542.223L1796.58 571.351L1773.66 605.258Z" fill="#4761E3"/>
<path d="M1742.9 834.32C1722.07 813.937 1709.91 794.301 1706.33 775.446C1702.79 756.59 1708.05 739.978 1722.13 725.609L1722.85 724.861L1760.04 761.272L1757.86 763.515C1752.36 769.139 1750.71 774.893 1752.88 780.745C1755.06 786.597 1761.47 794.724 1772.03 805.094C1781.95 814.782 1789.36 820.374 1794.3 821.804C1799.21 823.202 1803.47 822.097 1807.01 818.456C1810.43 815.01 1811.56 811.336 1810.46 807.5C1809.35 803.664 1805.68 797.715 1799.37 789.587L1768.55 751.129C1757.47 737.67 1751.32 724.861 1750.12 712.67C1748.92 700.512 1753.5 689.134 1763.87 678.568C1770.99 671.286 1779.57 666.832 1789.62 665.174C1799.66 663.516 1810.91 665.304 1823.43 670.603C1835.91 675.87 1849.24 685.46 1863.45 699.374C1877 712.638 1886.85 725.642 1893.06 738.32C1899.24 751.031 1901.48 763.19 1899.83 774.796C1898.17 786.434 1892.38 797.292 1882.5 807.37L1881.78 808.118L1844.59 771.707L1846.06 770.212C1849.44 766.766 1851.52 763.19 1852.33 759.581C1853.11 755.973 1852.04 751.616 1849.11 746.513C1846.19 741.376 1840.95 735.102 1833.34 727.657C1824.08 718.587 1817.06 713.418 1812.21 712.085C1807.37 710.72 1803.01 712.085 1799.11 716.019C1796.06 719.14 1795.02 722.781 1796.06 726.844C1797.06 730.908 1801.06 737.507 1808.02 746.578L1831.39 775.771C1846.15 793.781 1854.15 809.06 1855.42 821.641C1856.69 834.223 1852.3 845.633 1842.28 855.874C1834.68 863.644 1825.57 868 1814.94 868.91C1804.31 869.82 1792.9 867.447 1780.65 861.79C1768.39 856.101 1755.84 846.966 1742.94 834.353L1742.9 834.32Z" fill="#4761E3"/>
<path d="M1875.88 1003.99L1852.57 967.837C1841.55 950.737 1837.06 934.645 1839.14 919.528C1841.22 904.411 1851.5 890.92 1869.96 878.989L1991.51 800.544L2019.73 844.269L1903.15 919.495C1895.77 924.274 1891.91 929.02 1891.55 933.799C1891.19 938.578 1893.47 944.722 1898.34 952.33L1915.28 978.565L1875.94 1003.95L1875.88 1003.99ZM1985.76 933.084L1912.19 819.107L1948.34 795.765L2021.91 909.742L1985.76 933.084Z" fill="#4761E3"/>
<path d="M489.476 1055.41C459.827 1139.78 443.67 1230.54 443.67 1325.05C443.67 1773.97 807.579 2137.88 1256.5 2137.88C1705.42 2137.88 2069.33 1773.97 2069.33 1325.05C2069.33 1230.61 2053.24 1139.94 2023.62 1055.61" stroke="#4761E3" stroke-width="39.0112" stroke-miterlimit="10"/>
<path d="M1489.43 1602.25C1450.97 1561.49 1389.3 1542.63 1333.32 1545.17C1319.6 1545.79 1305.94 1547.22 1292.39 1549.13C1240.99 1538.67 1189.01 1537.82 1142.78 1562.3C1101.33 1584.21 1072.79 1624.39 1045.84 1663.11C1010.6 1713.7 974.608 1766.04 961.149 1826.47C959.264 1834.99 957.931 1844.29 961.702 1852.12C970.739 1870.81 997.69 1866.13 1017.39 1860.38C1119.83 1830.47 1228.9 1851.57 1335.27 1858.69C1416.15 1864.08 1475.8 1869.77 1556.1 1858.65C1563.19 1857.68 1586.82 1859.56 1591.89 1854.43C1596.25 1850.04 1598.4 1843.67 1599.01 1837.46C1603.53 1791.56 1594.72 1748.61 1564.52 1698.48C1557.01 1686.03 1537.44 1662.59 1528.01 1650.73C1512.64 1631.32 1500.02 1613.47 1489.43 1602.25Z" fill="#FFAD92"/>
<path d="M1252.83 1542.31C1429.12 1542.31 1572.26 1685.45 1572.26 1861.74H933.357C933.357 1685.45 1076.53 1542.31 1252.83 1542.31Z" stroke="#4761E3" stroke-width="39.0112" stroke-miterlimit="10"/>
<path d="M1189.24 1519.42H1313.95V1591.66C1313.95 1626.09 1286.02 1654.01 1251.59 1654.01C1217.17 1654.01 1189.24 1626.09 1189.24 1591.66V1519.42Z" fill="#FDF7EB" stroke="#4761E3" stroke-width="39.0112" stroke-miterlimit="10"/>
<path d="M1508.36 1098.91V1305.31C1508.36 1424.88 1411.42 1521.83 1291.85 1521.83H1211.03C1091.46 1521.83 994.518 1424.88 994.518 1305.31V1098.91" fill="#FDF7EB"/>
<path d="M1508.36 1098.91V1305.31C1508.36 1424.88 1411.42 1521.83 1291.85 1521.83H1211.03C1091.46 1521.83 994.518 1424.88 994.518 1305.31V1098.91" stroke="#4761E3" stroke-width="39.0112" stroke-miterlimit="10"/>
<path d="M1266.04 1350.18C1266.04 1350.18 1298.51 1324.14 1330.7 1350.18C1361.48 1375.08 1371.53 1399.89 1395.49 1395.89C1418.18 1392.12 1421.01 1367.54 1412.49 1358.08" stroke="#4761E3" stroke-width="39.0112" stroke-miterlimit="10"/>
<path d="M1239.63 1350.18C1239.63 1350.18 1207.16 1324.14 1174.97 1350.18C1144.19 1375.08 1134.14 1399.89 1110.18 1395.89C1087.49 1392.12 1084.66 1367.54 1093.18 1358.08" stroke="#4761E3" stroke-width="39.0112" stroke-miterlimit="10"/>
<path d="M992.822 1191.6V1324.53C992.822 1324.53 910.118 1296.51 900.69 1248.39C883.2 1159.22 992.822 1191.6 992.822 1191.6Z" stroke="#4761E3" stroke-width="39.0112" stroke-miterlimit="10"/>
<path d="M1508.94 1191.6V1324.53C1508.94 1324.53 1591.64 1296.51 1601.07 1248.39C1618.56 1159.22 1508.94 1191.6 1508.94 1191.6Z" stroke="#4761E3" stroke-width="39.0112" stroke-miterlimit="10"/>
<path d="M1174.82 885.069C1174.82 885.069 1180.73 854.348 1219.22 838.061C1259.08 821.156 1287.23 820.018 1297.73 833.314C1297.73 833.314 1311.81 847.033 1302.32 854.185C1281.67 869.757 1222.21 887.54 1176.83 899.633C1172.41 900.803 1173.06 896.35 1174.82 885.069Z" fill="#4761E3"/>
<path d="M1394.15 833.379C1359.04 862.312 1319.25 886.076 1276.67 903.566C1258.85 910.881 1240.52 917.123 1223.48 925.965C1207.78 934.092 1193.28 944.365 1176.99 951.42C1152.51 962.018 1125.24 964.846 1098.52 967.544C1072.77 970.145 1047.05 972.746 1021.31 975.347C991.787 978.338 961.359 981.556 935.384 995.307C909.409 1009.06 888.765 1036.11 892.797 1064.16C896.568 1090.36 921.177 1110.68 948.062 1117.12C974.948 1123.56 1003.49 1118.49 1029.82 1110.13C1056.16 1101.78 1081.35 1090.23 1108.14 1083.28C1136.23 1075.96 1165.48 1073.85 1194.55 1072.84C1216.49 1072.09 1238.53 1071.93 1260.28 1074.76C1290.03 1078.6 1318.7 1087.93 1348.15 1093.39C1392.85 1101.68 1438.82 1101.06 1484.37 1100.41C1498.09 1100.21 1512.1 1099.95 1525.07 1095.66C1545.55 1088.87 1560.93 1072.87 1575.39 1057.5C1587.49 1044.62 1599.74 1031.46 1607.12 1015.69C1618.08 992.219 1617.14 965.496 1615.97 939.847C1615.41 927.395 1614.76 914.619 1609.76 903.111C1605.92 894.334 1599.74 886.694 1593.63 879.184C1575.85 857.37 1557.74 835.232 1534.11 819.237C1510.47 803.242 1480.14 794.042 1452.15 801.194C1430.44 806.753 1412.65 821.22 1395.68 835.297" fill="#FFAD92"/>
<path d="M1520.38 1099.76C1605.65 1046.12 1611.34 925.867 1536.44 858.475C1454.51 784.744 1334.1 845.504 1240.6 884.938C1118.79 936.335 906.797 911.303 882.74 1016.28C855.725 1134.15 1020.25 1162.79 1114.95 1086.69C1212.09 1008.67 1330.52 1011.3 1330.52 1011.3" stroke="#4761E3" stroke-width="39.0112" stroke-miterlimit="10"/>
<path d="M1098.38 1098.91H1528.93" stroke="#4761E3" stroke-width="39.0112" stroke-miterlimit="10"/>
</g>
<defs>
<clipPath id="clip0_1501_2941">
<rect width="1761.39" height="1815.42" fill="white" transform="translate(369 342)"/>
</clipPath>
</defs>
</svg>
